<?xml version='1.0' encoding='iso-8859-1'?>
<svg version="1.1" xmlns="http://www.w3.org/2000/svg" viewBox="0 0 470 470" xmlns:xlink="http://www.w3.org/1999/xlink" enable-background="new 0 0 470 470">
  <g>
    <path d="m142.5,399.583h125c4.143,0 7.5-3.358 7.5-7.5s-3.357-7.5-7.5-7.5h-117.5v-35.65c9.641-1.749 15.54-6.716 20.461-10.866 5.497-4.635 9.469-7.984 18.292-7.984 8.822,0 12.793,3.349 18.289,7.983 6.084,5.131 13.657,11.517 27.959,11.517s21.874-6.386 27.958-11.517c5.496-4.635 9.467-7.983 18.288-7.983 8.823,0 12.795,3.349 18.292,7.984 4.921,4.15 10.82,9.117 20.461,10.866v35.65h-22.5c-4.143,0-7.5,3.358-7.5,7.5s3.357,7.5 7.5,7.5h30c4.143,0 7.5-3.358 7.5-7.5v-89.683c0-18.096-14.713-32.817-32.798-32.817h-57.671v-22.5c0-4.142-3.357-7.5-7.5-7.5s-7.5,3.358-7.5,7.5v22.5h-61.733c-18.085,0-32.798,14.722-32.798,32.817v89.683c-1.13687e-13,4.142 3.357,7.5 7.5,7.5zm25.298-115h134.404c9.813,0 17.798,7.993 17.798,17.817v31.115c-4.164-1.341-7.146-3.842-10.791-6.915-6.085-5.131-13.658-11.517-27.962-11.517-14.302,0-21.874,6.386-27.958,11.517-5.496,4.635-9.467,7.983-18.288,7.983-8.822,0-12.793-3.349-18.289-7.983-6.084-5.131-13.657-11.517-27.959-11.517-14.304,0-21.877,6.386-27.962,11.517-3.645,3.074-6.627,5.575-10.791,6.915v-31.115c0-9.825 7.984-17.817 17.798-17.817z"/>
    <path d="m218.046,235.564c1.777,0 3.562-0.628 4.992-1.905 3.09-2.759 3.358-7.5 0.6-10.59-2.937-3.289-4.554-7.521-4.554-11.917 0-9.569 7.385-19.964 17.947-25.724 10.563,5.76 17.948,16.155 17.948,25.724 0,4.396-1.617,8.628-4.554,11.917-2.76,3.089-2.491,7.831 0.598,10.589 3.09,2.759 7.83,2.491 10.59-0.598 5.396-6.041 8.366-13.821 8.366-21.908 0-16.4-12.313-33.235-29.944-40.941-1.916-0.837-4.092-0.836-6.008,0-17.63,7.706-29.943,24.541-29.943,40.941 0,8.086 2.971,15.867 8.364,21.908 1.482,1.659 3.535,2.504 5.598,2.504z"/>
    <path d="M175,45h120c4.143,0,7.5-3.358,7.5-7.5S299.143,30,295,30H175c-4.143,0-7.5,3.358-7.5,7.5S170.857,45,175,45z"/>
    <path d="m130,104.092c12.406,0 22.5-10.093 22.5-22.5v-59.092c0-12.407-10.094-22.5-22.5-22.5s-22.5,10.093-22.5,22.5v59.092c0,12.407 10.094,22.5 22.5,22.5zm-7.5-81.592c0-4.136 3.364-7.5 7.5-7.5s7.5,3.364 7.5,7.5v59.092c0,4.135-3.364,7.5-7.5,7.5s-7.5-3.365-7.5-7.5v-59.092z"/>
    <path d="m340,104.092c12.406,0 22.5-10.093 22.5-22.5v-59.092c0-12.407-10.094-22.5-22.5-22.5s-22.5,10.093-22.5,22.5v59.092c0,12.407 10.094,22.5 22.5,22.5zm-7.5-81.592c0-4.136 3.364-7.5 7.5-7.5s7.5,3.364 7.5,7.5v59.092c0,4.135-3.364,7.5-7.5,7.5s-7.5-3.365-7.5-7.5v-59.092z"/>
    <path d="M417.5,30H385c-4.143,0-7.5,3.358-7.5,7.5s3.357,7.5,7.5,7.5h32.5c12.406,0,22.5,10.093,22.5,22.5v61.665H30V67.5   C30,55.093,40.094,45,52.5,45h32.499c4.143,0,7.5-3.358,7.5-7.5s-3.357-7.5-7.5-7.5H52.5C31.822,30,15,46.822,15,67.5v395   c0,4.142,3.357,7.5,7.5,7.5h425c4.143,0,7.5-3.358,7.5-7.5v-395C455,46.822,438.178,30,417.5,30z M30,455V144.165h410V455H30z"/>
    <path d="M82.5,425H60V166.665c0-4.142-3.357-7.5-7.5-7.5s-7.5,3.358-7.5,7.5V432.5c0,4.142,3.357,7.5,7.5,7.5h30   c4.143,0,7.5-3.358,7.5-7.5S86.643,425,82.5,425z"/>
    <path d="m417.5,159.165c-4.143,0-7.5,3.358-7.5,7.5v258.335h-297.5c-4.143,0-7.5,3.358-7.5,7.5s3.357,7.5 7.5,7.5h305c4.143,0 7.5-3.358 7.5-7.5v-265.835c0-4.142-3.357-7.5-7.5-7.5z"/>
  </g>
</svg>
